<svg width="29" height="30" viewBox="0 0 29 30" fill="none" xmlns="http://www.w3.org/2000/svg">
<path d="M14.5 0.5C6.50501 0.5 0 7.00501 0 15C0 22.995 6.50501 29.5 14.5 29.5C22.495 29.5 29 22.995 29 15C29 7.00501 22.495 0.5 14.5 0.5ZM22.604 11.1842L13.3371 20.3784C12.792 20.9236 11.9198 20.9599 11.3383 20.4148L6.43233 15.9449C5.85088 15.3998 5.81454 14.4912 6.32331 13.9098C6.86842 13.3283 7.77694 13.292 8.3584 13.8371L12.2469 17.3985L20.5326 9.11278C21.114 8.53133 22.0226 8.53133 22.604 9.11278C23.1855 9.69424 23.1855 10.6028 22.604 11.1842Z" fill="#231F20"/>
</svg>
