<svg xmlns="http://www.w3.org/2000/svg" width="100%" height="100%" viewBox="0 0 138 33" fill="none" preserveAspectRatio="xMidYMid meet" aria-hidden="true" role="img">
<g clip-path="url(#clip0_14366_257)">
<path d="M33.0099 6.45798C37.3659 6.45798 40.0682 9.55298 40.0682 14.4367V26.0865H34.8652V15.3076C34.8652 12.4403 33.8501 11.0134 31.5108 11.0134C28.9161 11.0134 27.1952 12.8959 27.1952 16.011V26.0865H21.9922V0H27.1952V8.68879C28.6539 7.30207 30.7109 6.45128 33.0099 6.45128V6.45798Z" fill="#231F20"></path>
<path d="M63.0063 6.87996V26.0529H58.926L58.4756 24.3379C56.8219 25.7783 54.6641 26.6223 52.2374 26.6223C46.4496 26.6223 42.1406 22.2679 42.1406 16.4597C42.1406 10.6516 46.4428 6.35742 52.2374 6.35742C54.7044 6.35742 56.8959 7.22831 58.5562 8.70212L59.1142 6.86656H62.9996L63.0063 6.87996ZM57.9109 16.4664C57.9109 13.4518 55.6926 11.2143 52.6743 11.2143C49.656 11.2143 47.431 13.4652 47.431 16.4664C47.431 19.4677 49.656 21.7253 52.6743 21.7253C55.6926 21.7253 57.9109 19.4811 57.9109 16.4664Z" fill="#231F20"></path>
<path d="M77.0715 6.37109C82.866 6.37109 87.1548 10.692 87.1548 16.5002C87.1548 22.3084 82.866 26.6628 77.0715 26.6628C75.0817 26.6628 73.2667 26.0733 71.7811 25.0483V33.0069H66.5781V6.91372H70.0199L70.9072 8.6555C72.5407 7.21519 74.6717 6.37109 77.0715 6.37109ZM81.8846 16.5002C81.8846 13.4856 79.6662 11.2481 76.648 11.2481C73.6297 11.2481 71.4047 13.499 71.4047 16.5002C71.4047 19.5014 73.6297 21.759 76.648 21.759C79.6662 21.759 81.8846 19.5148 81.8846 16.5002Z" fill="#231F20"></path>
<path d="M108.132 16.4334C108.132 16.9425 108.099 17.4449 108.031 17.9541H93.4711C93.9215 20.5734 95.6491 22.0137 98.1767 22.0137C99.985 22.0137 101.471 21.163 102.257 19.7896H107.722C106.324 23.9699 102.64 26.6362 98.17 26.6362C92.4897 26.6362 88.1875 22.2549 88.1875 16.507C88.1875 10.7592 92.4561 6.37793 98.17 6.37793C103.884 6.37793 108.132 10.92 108.132 16.4401V16.4334ZM93.6056 14.4102H102.929C102.197 12.0655 100.503 10.7927 98.17 10.7927C95.8374 10.7927 94.2106 12.1392 93.6056 14.4102Z" fill="#231F20"></path>
<path d="M110.406 0H115.609V26.0865H110.406V0Z" fill="#231F20"></path>
<path d="M138 6.91309L129.611 25.8382C127.305 31.0367 125.275 33.0063 120.959 33.0063H118.815V28.3437H120.616C123.124 28.3437 123.776 27.6804 124.959 24.7797L125.033 24.6256L116.879 6.91979H122.539L127.675 18.717L132.468 6.91979H138V6.91309Z" fill="#231F20"></path>
<path d="M10.2043 10.8995C7.56247 10.2698 5.39792 9.74056 5.39792 7.99208C5.39792 6.36419 7.17259 5.62728 8.92036 5.62728C9.02119 5.62728 9.12202 5.62728 9.22286 5.63398V0.770398C9.16236 0.770398 9.10858 0.770398 9.0548 0.770398C3.52243 0.763699 0 3.45006 0 8.21985C0 13.5792 4.57109 14.6644 8.3288 15.5889C11.0311 16.2186 13.31 16.7479 13.31 18.6772C13.31 20.6066 11.3269 21.5981 9.29008 21.5981C9.26319 21.5981 9.24302 21.5981 9.21613 21.5981V26.5822C9.24974 26.5822 9.29008 26.5822 9.32369 26.5822C14.4863 26.5822 18.7818 23.9762 18.7818 18.6102C18.7818 13.2442 14.0091 11.8575 10.2043 10.8995Z" fill="#231F20"></path>
<path d="M0 26.7702V20.0107H6.79614C6.79614 23.7355 3.75771 26.7702 0 26.7702Z" fill="#231F20"></path>
<path d="M18.7805 0V6.75944H11.9844C11.9844 3.02801 15.0295 0 18.7805 0Z" fill="#231F20"></path>
</g>
<defs>
<clipPath id="clip0_14366_257">
<rect width="138" height="33" fill="white"></rect>
</clipPath>
</defs>
</svg>