<svg width="147" height="31" viewBox="0 0 147 31" fill="none" xmlns="http://www.w3.org/2000/svg">
<path d="M13.8152 23.4558C18.2879 23.4558 21.9138 19.8018 21.9138 15.2943C21.9138 10.7868 18.2879 7.13281 13.8152 7.13281C9.34242 7.13281 5.71655 10.7868 5.71655 15.2943C5.71655 19.8018 9.34242 23.4558 13.8152 23.4558Z" fill="white"/>
<path d="M42.9429 4.86965C39.4721 4.86965 34.1638 3.22363 34.1638 3.22363C34.1638 3.22363 33.0068 6.24133 33.0068 10.3564C33.0068 14.4714 36.4096 25.3077 43.2832 28.0511C43.2832 28.0511 53.0832 21.8099 53.0832 10.905C53.0832 4.38956 52.1304 3.22363 52.1304 3.22363C52.1304 3.22363 46.4138 4.86965 42.9429 4.86965Z" fill="white"/>
<path d="M63.1555 13.3051V1.50867H67.5791C69.6889 1.3715 71.7986 2.2631 71.7986 4.59496C71.7986 5.89805 70.9138 6.78965 69.7569 7.20115C71.2541 7.54407 72.343 8.57283 72.343 10.2874C72.343 12.6193 69.4166 13.5109 67.6472 13.3737H63.1555V13.3051ZM67.6472 6.24097C68.7361 6.24097 69.2805 5.82947 69.2805 4.86929C69.2805 3.90912 68.668 3.49761 67.6472 3.49761H65.6736V6.30956H67.6472V6.24097ZM67.6472 11.3162C68.8041 11.3162 69.6208 11.1104 69.6208 9.73876C69.6208 8.36708 68.8041 8.16133 67.6472 8.16133H65.6736V11.3162H67.6472ZM76.3583 1.50867V13.3051H73.9083V1.50867H76.3583ZM83.7763 12.2764C83.2319 13.0308 82.4833 13.5109 81.2583 13.5109C80.4416 13.5109 78.8763 12.8936 78.6041 11.7277C78.468 11.2476 78.468 10.6989 78.468 10.4246V5.07504H80.918V10.0131C80.918 10.9047 81.1902 11.9335 82.3472 11.9335C83.0958 11.9335 83.7763 11.2476 83.7763 10.0131V5.07504H86.2263V11.7963C86.2263 12.2764 86.2944 12.7565 86.2944 13.2365H83.8444L83.7763 12.2764ZM90.5138 9.87593C90.5138 10.9733 90.65 11.9335 91.943 11.9335C92.7597 11.9335 93.2361 11.5905 93.4402 10.8361H95.618C95.4138 12.8936 93.8486 13.5109 91.943 13.5109C89.1527 13.5109 87.9958 11.9335 87.9958 9.19009C87.9958 6.72106 89.425 4.80071 91.943 4.80071C93.4402 4.80071 94.7333 5.34938 95.4138 6.78965C95.618 7.26973 95.7541 7.74982 95.8222 8.22991C95.8902 8.71 95.8902 9.25867 95.8902 9.80735H90.5138V9.87593ZM93.3722 8.22991C93.3722 7.33832 93.1 6.51531 91.943 6.51531C90.8541 6.51531 90.5819 7.33832 90.5138 8.22991H93.3722ZM104.125 5.2808C104.125 4.04628 103.376 3.01752 101.879 3.01752C100.11 3.01752 99.6333 5.6923 99.6333 7.33832C99.6333 8.98434 100.11 11.6591 101.879 11.6591C103.376 11.6591 104.125 10.6304 104.125 9.39584H106.779C106.643 12.345 104.533 13.4423 101.879 13.4423C98.4763 13.4423 96.9791 10.7675 96.9791 7.26973C96.9791 3.84053 98.4763 1.09717 101.879 1.09717C104.601 1.09717 106.711 2.19451 106.779 5.14363H104.125V5.2808ZM110.318 5.07504L110.386 6.58389C110.931 5.2808 111.951 4.93788 113.176 5.00646V7.20115H112.087C111.679 7.20115 111.135 7.47549 110.931 7.81841C110.658 8.2985 110.59 8.71 110.59 9.25867V13.3051H108.14V6.72106C108.14 6.37814 108.072 5.6923 108.072 5.07504H110.318ZM118.485 13.5795C115.831 13.5795 114.197 11.7963 114.197 9.19009C114.197 6.58389 115.762 4.80071 118.485 4.80071C121.139 4.80071 122.772 6.58389 122.772 9.19009C122.772 11.7963 121.139 13.5795 118.485 13.5795ZM118.485 11.9335C119.982 11.9335 120.254 10.4932 120.254 9.19009C120.254 7.88699 119.982 6.44673 118.485 6.44673C116.987 6.44673 116.715 7.88699 116.715 9.19009C116.783 10.4932 116.987 11.9335 118.485 11.9335ZM128.625 7.26973C128.625 6.72106 128.081 6.44673 127.536 6.44673C126.856 6.44673 126.583 6.65248 126.583 7.20115C126.583 8.50425 131.279 7.74982 131.279 10.8361C131.279 12.6193 129.101 13.5109 127.604 13.5109C125.699 13.5109 124.065 12.7565 123.997 10.9047H126.243C126.311 11.5219 126.856 11.9335 127.604 11.9335C128.285 11.9335 128.761 11.6591 128.761 11.0419C128.761 10.356 127.604 10.0817 127.128 10.0131C125.562 9.67018 124.133 9.25867 124.133 7.4069C124.133 5.6923 126.175 4.93788 127.604 4.93788C129.306 4.93788 130.803 5.55513 130.871 7.4069H128.625V7.26973ZM136.724 7.26973C136.724 6.72106 136.179 6.44673 135.635 6.44673C134.954 6.44673 134.682 6.65248 134.682 7.20115C134.682 8.50425 139.378 7.74982 139.378 10.8361C139.378 12.6193 137.2 13.5109 135.703 13.5109C133.797 13.5109 132.164 12.7565 132.096 10.9047H134.342C134.41 11.5219 134.954 11.9335 135.703 11.9335C136.383 11.9335 136.86 11.6591 136.86 11.0419C136.86 10.356 135.703 10.0817 135.226 10.0131C133.661 9.67018 132.232 9.25867 132.232 7.4069C132.232 5.6923 134.274 4.93788 135.703 4.93788C137.404 4.93788 138.901 5.55513 138.969 7.4069H136.724V7.26973ZM63.1555 29.3538V17.5573H67.5791C69.6889 17.4202 71.7986 18.3118 71.7986 20.6436C71.7986 21.9467 70.9138 22.8383 69.7569 23.2498C71.2541 23.5927 72.343 24.6215 72.343 26.3361C72.343 28.668 69.4166 29.5596 67.6472 29.4224H63.1555V29.3538ZM67.6472 22.2896C68.7361 22.2896 69.2805 21.8781 69.2805 20.918C69.2805 19.9578 68.668 19.5463 67.6472 19.5463H65.6736V22.3582L67.6472 22.2896ZM67.6472 27.3649C68.8041 27.3649 69.6208 27.1591 69.6208 25.7874C69.6208 24.4158 68.8041 24.21 67.6472 24.21H65.6736V27.3649H67.6472ZM76.3583 17.5573V29.3538H73.9083V17.5573H76.3583ZM83.7763 28.325C83.2319 29.0795 82.4833 29.5596 81.2583 29.5596C80.4416 29.5596 78.8763 28.9423 78.6041 27.7078C78.468 27.2277 78.468 26.679 78.468 26.4047V21.0551H80.918V26.0618C80.918 26.9534 81.1902 27.9821 82.3472 27.9821C83.0958 27.9821 83.7763 27.2963 83.7763 26.0618V21.1237H86.2263V27.845C86.2263 28.325 86.2944 28.8051 86.2944 29.2852H83.8444L83.7763 28.325ZM90.5138 25.9246C90.5138 27.0219 90.65 27.9821 91.943 27.9821C92.7597 27.9821 93.2361 27.6392 93.4402 26.8848H95.618C95.4138 28.9423 93.8486 29.5596 91.943 29.5596C89.1527 29.5596 87.9958 27.9821 87.9958 25.2388C87.9958 22.7697 89.425 20.8494 91.943 20.8494C93.4402 20.8494 94.7333 21.3981 95.4138 22.8383C95.618 23.3184 95.7541 23.7985 95.8222 24.2786C95.8902 24.7587 95.8902 25.3073 95.8902 25.856L90.5138 25.9246ZM93.3722 24.2786C93.3722 23.387 93.1 22.564 91.943 22.564C90.8541 22.564 90.5819 23.387 90.5138 24.2786H93.3722ZM103.785 20.918C103.717 19.752 103.036 19.1348 101.811 19.1348C100.858 19.1348 99.9736 19.6149 99.9736 20.6436C99.9736 21.9467 101.131 22.0839 102.151 22.2896C103.921 22.7697 106.575 23.2498 106.575 25.6503C106.575 28.5994 104.057 29.6281 101.539 29.6281C98.8847 29.6281 96.9791 28.5994 97.0472 25.5817H99.6333C99.5652 26.8848 100.314 27.7764 101.607 27.7764C102.628 27.7764 103.921 27.4335 103.921 26.1989C103.921 24.8273 102.219 24.6901 101.267 24.4158C99.6333 24.0042 97.3875 23.2498 97.3875 21.1237C97.3875 18.4489 99.8375 17.2144 102.287 17.2144C104.533 17.2144 106.303 18.4489 106.303 20.8494L103.785 20.918ZM108.276 29.3538V17.5573H110.726V22.1525C111.203 21.3981 112.019 20.918 113.244 20.918C114.061 20.918 115.626 21.5352 115.899 22.7011C116.035 23.1812 116.035 23.7299 116.035 24.0042V29.3538H113.653V24.4158C113.653 23.5242 113.381 22.564 112.224 22.564C111.475 22.564 110.794 23.2498 110.794 24.4158V29.3538H108.276ZM120.731 17.5573V19.6835H118.144V17.5573H120.731ZM120.594 21.1237V29.3538H118.144V21.1237H120.594ZM124.882 25.9246C124.882 27.0219 125.018 27.9821 126.311 27.9821C127.128 27.9821 127.604 27.6392 127.808 26.8848H129.986C129.782 28.9423 128.217 29.5596 126.311 29.5596C123.521 29.5596 122.364 27.9821 122.364 25.2388C122.364 22.7697 123.793 20.8494 126.311 20.8494C127.808 20.8494 129.101 21.3981 129.782 22.8383C129.986 23.3184 130.122 23.7985 130.19 24.2786C130.258 24.7587 130.258 25.3073 130.258 25.856L124.882 25.9246ZM127.672 24.2786C127.672 23.387 127.4 22.564 126.243 22.564C125.154 22.564 124.882 23.387 124.814 24.2786H127.672ZM134.137 17.5573V29.3538H131.687V17.5573H134.137ZM141.896 17.5573H144.346V27.7764C144.346 28.325 144.414 28.8737 144.414 29.4224H141.964C141.964 29.0109 141.896 28.668 141.896 28.2565C141.351 29.2166 140.467 29.6967 139.378 29.6967C136.996 29.6967 135.839 27.4335 135.839 25.3073C135.839 23.1127 137.132 20.918 139.65 20.918C140.467 20.918 141.351 21.3981 141.828 22.0839L141.896 17.5573ZM140.126 27.9821C141.419 27.9821 141.896 26.4047 141.896 25.2388C141.896 24.1414 141.487 22.4954 140.126 22.4954C138.561 22.4954 138.357 23.9357 138.357 25.2388C138.357 26.4733 138.561 27.9821 140.126 27.9821ZM140.535 13.3051C140.126 13.3051 139.786 12.9622 139.786 12.5507C139.786 12.1392 140.126 11.7963 140.535 11.7963C140.943 11.7963 141.283 12.1392 141.283 12.5507C141.283 12.9622 141.011 13.3051 140.535 13.3051ZM140.535 11.5905C140.058 11.5905 139.65 12.002 139.65 12.4821C139.65 12.9622 140.058 13.3737 140.535 13.3737C141.011 13.3737 141.419 12.9622 141.419 12.4821C141.419 12.002 141.011 11.5905 140.535 11.5905Z" fill="#231F20"/>
<path d="M140.535 12.4825H140.33V12.1396H140.603C140.739 12.1396 140.875 12.1396 140.875 12.2768C140.875 12.4825 140.671 12.4825 140.535 12.4825ZM141.011 12.2768C141.011 12.071 140.943 12.0024 140.671 12.0024H140.194V13.0312H140.33V12.5511H140.535L140.875 13.0312H141.011L140.739 12.5511C140.875 12.5511 141.011 12.4825 141.011 12.2768ZM145.775 29.2856C145.367 29.2856 145.026 28.9427 145.026 28.5312C145.026 28.1197 145.367 27.7768 145.775 27.7768C146.183 27.7768 146.524 28.1197 146.524 28.5312C146.524 28.9427 146.183 29.2856 145.775 29.2856ZM145.775 27.571C145.299 27.571 144.89 27.9825 144.89 28.4626C144.89 28.9427 145.299 29.3542 145.775 29.3542C146.251 29.3542 146.66 28.9427 146.66 28.4626C146.66 27.9825 146.251 27.571 145.775 27.571Z" fill="#231F20"/>
<path d="M145.707 28.4625H145.503V28.1196H145.775C145.911 28.1196 146.047 28.1196 146.047 28.2568C146.047 28.4625 145.911 28.4625 145.707 28.4625ZM146.251 28.2568C146.251 28.051 146.183 27.9824 145.911 27.9824H145.435V29.0112H145.571V28.5311H145.775L146.047 29.0112H146.183L145.911 28.5311C146.115 28.5311 146.251 28.4625 146.251 28.2568Z" fill="#231F20"/>
<path d="M26.1334 26.3364C25.2487 26.3364 24.5681 27.0223 24.5681 27.9139C24.5681 28.8055 25.2487 29.4913 26.1334 29.4913C26.9501 29.4913 27.6987 28.8055 27.6987 27.9139C27.6987 27.0223 27.0181 26.3364 26.1334 26.3364ZM26.1334 29.217C25.3848 29.217 24.8403 28.6683 24.8403 27.9139C24.8403 27.1594 25.3848 26.6108 26.1334 26.6108C26.882 26.6108 27.4264 27.1594 27.4264 27.9139C27.4264 28.6683 26.9501 29.217 26.1334 29.217Z" fill="#008BCC"/>
<path d="M26.95 27.502C26.95 27.159 26.8139 27.0219 26.3375 27.0219H25.5889V28.8051H25.7931V28.0506H26.2014L26.6778 28.8051H26.95L26.4056 28.0506C26.7459 27.9821 26.95 27.8449 26.95 27.502ZM26.1334 27.7763H25.7931V27.2276H26.2695C26.4736 27.2276 26.6778 27.2276 26.6778 27.502C26.7459 27.8449 26.3375 27.7763 26.1334 27.7763ZM13.8834 17.4201C13.8153 17.4201 13.8153 17.4201 13.7473 17.4887L11.1611 21.4666C11.9778 21.8095 12.8625 22.0152 13.8153 22.0152C14.7681 22.0152 15.6528 21.8095 16.4695 21.4666L13.8834 17.4887C13.9514 17.4201 13.8834 17.4201 13.8834 17.4201ZM11.3653 14.1281L7.48615 13.7852C7.35004 14.2652 7.28198 14.8139 7.28198 15.3626C7.28198 17.0086 7.89448 18.5175 8.84726 19.6834L11.5695 14.471C11.7056 14.3338 11.6375 14.1967 11.3653 14.1281Z" fill="#008BCC"/>
<path d="M20.0083 9.12158V1.37158H7.69028V9.12158H0V21.5353H7.69028V29.2853H20.0083V21.5353H27.6986V9.12158H20.0083ZM13.8833 7.68132C16.9458 7.68132 19.6 9.4645 20.7569 12.1393H15.3125C14.5639 12.1393 14.2236 11.6592 14.1556 11.3163C14.1556 10.9048 14.2236 10.7676 14.5639 10.2875C14.9722 9.73884 14.7 8.77866 13.8153 8.71008C12.9306 8.71008 12.6583 9.73884 13.0667 10.2875C13.4069 10.7676 13.475 10.9048 13.475 11.3163C13.475 11.6592 13.1347 12.1393 12.3181 12.1393H6.87361C8.16667 9.53309 10.8208 7.68132 13.8833 7.68132ZM6.26111 15.3627C6.26111 14.4026 6.46528 13.511 6.7375 12.688L11.8417 13.168C12.7944 13.3052 12.9306 14.2654 12.6583 14.8141L9.1875 21.4667C7.41806 20.0264 6.26111 17.8318 6.26111 15.3627ZM18.0347 21.8096C16.8097 22.6326 15.3806 23.0441 13.8153 23.0441C12.25 23.0441 10.8208 22.5641 9.59583 21.8096L13.3389 16.2543C13.6111 15.8428 14.0194 15.9114 14.2917 16.2543L18.0347 21.8096ZM18.5792 21.3981L15.1083 14.8141C14.8361 14.2654 14.9722 13.3052 15.925 13.168L21.0292 12.688C21.3694 13.511 21.5056 14.4711 21.5056 15.3627C21.5056 17.8318 20.3486 20.0265 18.5792 21.3981Z" fill="#008BCC"/>
<path d="M18.8514 11.0419C18.0347 10.0817 16.9458 9.3273 15.7208 8.98438C16.1292 9.60163 15.7889 10.4932 15.4486 10.9047C15.3806 10.9733 15.4486 11.0419 15.4486 11.0419H18.8514ZM16.4014 14.1282C16.1292 14.1282 16.1292 14.2653 16.1972 14.4025L18.9194 19.6149C19.8722 18.449 20.4847 16.9401 20.4847 15.2941C20.4847 14.7454 20.4167 14.1968 20.2806 13.7167L16.4014 14.1282ZM12.0458 9.05296C10.8208 9.39588 9.73195 10.1503 8.91528 11.1105H12.3181C12.3861 11.1105 12.3861 11.0419 12.3181 10.9733C11.9778 10.4932 11.6375 9.67022 12.0458 9.05296Z" fill="#008BCC"/>
<path d="M52.4708 1.37158C49.4763 2.88043 46.4819 3.70344 43.0111 3.70344C39.5402 3.70344 36.5458 2.88043 33.5513 1.37158C31.5777 5.28087 31.3055 11.5906 33.0069 16.8716C34.6402 21.9468 37.8388 26.6105 43.0111 29.4911C48.2514 26.6105 51.3819 21.9468 53.0152 16.8716C54.7847 11.5906 54.4444 5.28087 52.4708 1.37158ZM51.1097 16.2543C49.6125 20.5751 47.3666 24.4158 43.0791 27.0906C38.7916 24.4158 36.4777 20.5751 35.0486 16.2543C33.7555 12.4136 33.4152 7.88707 34.8444 4.38928C37.0222 5.14371 38.2472 5.34946 39.4041 5.55521C40.493 5.76096 41.4458 5.82955 43.0791 5.82955C44.6444 5.82955 45.6652 5.69238 46.7541 5.55521C47.9111 5.34946 49.2041 5.14371 51.3139 4.38928C52.675 7.88707 52.4027 12.4136 51.1097 16.2543Z" fill="#008BCC"/>
<path d="M46.7541 6.51539C45.5291 6.65256 44.236 6.78973 43.011 6.78973C41.786 6.78973 40.561 6.65256 39.268 6.51539C38.043 6.30964 36.818 6.0353 35.5249 5.69238C34.6402 8.29858 34.7763 11.5906 35.5249 14.4711C36.818 19.9579 40.1527 24.1415 43.011 25.9933C45.9374 24.1415 49.2041 19.9579 50.4972 14.4711C51.1777 11.522 51.3819 8.29858 50.4972 5.69238C49.2041 6.0353 48.0472 6.37822 46.7541 6.51539ZM42.3305 23.4557C42.2624 23.73 42.3985 23.8672 42.3985 24.0043C42.3305 24.2101 42.1944 24.1415 42.1263 24.0043C41.9902 23.7986 41.9222 23.6614 41.9222 23.3185C41.8541 22.7698 42.1263 22.5641 42.2624 22.4269C42.3985 22.2897 42.5347 22.2211 42.5347 22.2211L42.6027 23.1127C42.4666 23.1127 42.3305 23.1813 42.3305 23.4557ZM43.4874 24.3472C43.4874 24.4844 43.4194 24.6216 43.1472 24.6216C42.943 24.6216 42.8069 24.553 42.8069 24.2787C42.7388 23.1813 42.7388 21.1924 42.7388 21.1924C42.7388 21.1924 43.011 21.261 43.2152 21.3981C43.2833 21.3981 43.4194 21.5353 43.5555 21.6725C43.5555 21.7411 43.6235 21.7411 43.6235 21.8096C43.5555 22.5641 43.4874 24.0043 43.4874 24.3472ZM44.3722 22.2897C44.0999 22.4955 43.8277 22.5641 43.8277 22.5641V21.7411C43.8277 21.7411 43.8958 21.6725 43.8958 21.5353C43.8277 21.3981 43.2833 20.9866 43.011 20.8495C42.6708 20.7123 42.2624 20.5751 41.9902 20.5065C41.3097 20.2322 41.0374 19.6149 41.3097 18.9291C41.3777 18.6548 41.718 18.5176 41.8541 18.449C41.9902 18.3804 42.2624 18.3119 42.2624 18.3119L42.3305 19.272C42.3305 19.272 42.2624 19.272 42.1944 19.4092C42.1263 19.5464 42.2624 19.6835 42.3305 19.6835C42.8069 19.8893 43.4194 20.1636 43.8958 20.438C44.5083 20.7809 44.7124 21.0552 44.7124 21.5353C44.7805 21.8782 44.5763 22.1526 44.3722 22.2897ZM42.6708 17.8318C43.1472 17.9003 43.2833 17.9003 43.6916 17.9689L43.6235 19.8893L43.2152 19.6835L42.8069 19.4778L42.6708 17.8318ZM45.393 18.2433C45.3249 18.5862 45.1208 18.8605 44.7805 19.0663C44.4402 19.272 44.0319 19.272 44.0319 19.272V18.1061C44.0319 18.1061 44.0999 18.1061 44.168 18.0375C44.236 17.9689 44.236 17.9003 44.236 17.8318C44.236 17.7632 44.168 17.6946 44.0999 17.626C43.9638 17.5574 43.8277 17.5574 43.7597 17.5574L42.1263 17.3517C41.1735 17.2145 40.4249 16.5972 40.493 15.6371C40.561 15.0198 41.1735 14.8141 41.6499 14.6083L41.9902 15.2942C42.0583 15.5685 42.1263 15.7057 42.1263 15.7057C42.1263 15.7057 41.9222 15.7742 41.9222 15.9114C41.9222 16.0486 42.1263 16.1172 42.1944 16.1172C42.8749 16.1857 43.8277 16.3229 44.3041 16.5287C44.6444 16.6658 44.9166 16.803 45.1208 17.0773C45.393 17.5574 45.461 17.9003 45.393 18.2433ZM42.2624 13.7853C42.2624 13.7853 42.4666 13.7853 43.0791 13.8539C43.4874 13.8539 43.8277 13.9911 43.8277 13.9911L43.7597 16.0486C43.2833 15.98 43.011 15.9114 42.6027 15.8428C42.4666 15.0884 42.2624 14.8141 41.9902 14.2654C41.9222 14.1282 41.9902 14.0596 41.9902 14.0596C42.0583 13.9911 42.3305 13.9225 42.3305 13.9225L42.2624 13.7853ZM44.0999 15.8428C44.0999 15.8428 44.168 14.8826 44.168 14.4026C44.4402 14.334 44.5083 14.0596 44.3722 13.8539C44.3041 13.7167 44.0999 13.6481 44.0319 13.6481C43.4874 13.511 43.011 13.511 42.4666 13.4424C41.9902 13.3738 41.5819 13.3052 41.1735 13.2366C40.2888 13.0309 39.4722 12.5508 39.0638 11.7278C38.5874 10.699 38.9958 9.39592 40.0166 8.91583C40.7652 8.50433 41.5819 8.57291 42.3305 8.91583C42.6027 8.98442 42.7388 9.25875 42.8749 9.46451C42.943 9.53309 43.0791 9.60167 43.1472 9.73884C43.2152 9.80743 43.0791 9.80743 43.0791 9.80743C42.943 9.87601 42.3305 9.87601 42.1944 9.80743H41.3777C41.5819 9.94459 41.8541 10.0818 42.1263 10.2189C42.2624 10.2875 42.3985 10.2875 42.5347 10.3561C42.6027 10.3561 42.7388 10.4247 42.7388 10.4933C42.7388 10.5619 42.6027 10.5619 42.4666 10.6304C42.2624 10.699 41.9902 10.699 41.718 10.6304C41.3097 10.5619 41.1055 10.2875 40.8333 10.4247C40.6291 10.5619 40.6291 10.7676 40.6972 11.0419C40.7652 11.4534 41.1735 11.5906 41.5138 11.7278C42.6708 12.1393 43.9638 11.8649 45.0527 12.4822C45.461 12.688 46.0055 13.168 46.0735 13.6481C46.4138 15.5685 44.0999 15.8428 44.0999 15.8428ZM46.1416 9.46451C46.0735 9.67026 46.0055 9.67026 45.8694 9.80743C45.5972 10.0818 45.1888 10.3561 44.7805 10.699C44.5083 10.9048 44.3041 11.0419 44.0999 11.3849C44.0319 11.4534 43.9638 11.5906 43.9638 11.5906C43.2833 11.4534 42.6708 11.4534 42.1263 11.3163V10.7676C42.1263 10.7676 42.7388 10.7676 42.8069 10.3561C42.8069 10.3561 42.8069 10.2189 42.7388 10.1503C42.6708 10.0818 42.4666 10.0132 42.3985 10.0132C42.8749 10.0818 43.3513 10.2875 43.8277 10.4933C43.8277 10.4247 43.7597 10.2189 43.7597 10.2189C43.6916 10.1503 43.6235 10.0818 43.4194 10.0132C43.1472 9.94459 42.3985 9.87601 42.3985 9.87601H43.011C43.1472 9.87601 43.3513 9.80743 43.3513 9.73884C43.4194 9.67026 43.3513 9.53309 43.2152 9.39592L43.011 9.19017C42.943 9.053 42.8069 8.91583 42.7388 8.77867C42.6027 8.57291 42.0583 8.36716 42.0583 8.36716C42.0583 8.36716 41.9902 8.02424 42.1263 7.88707C42.1944 7.7499 42.4666 7.7499 42.5347 7.81849C42.8749 8.02424 43.3513 8.22999 43.8277 8.36716C43.9638 8.43575 43.9638 8.43575 43.9638 8.6415C44.0319 8.98442 43.8958 9.46451 43.9638 9.67026C43.9638 9.73884 44.0999 9.73884 44.0999 9.73884C44.5763 9.46451 44.8485 9.053 45.3249 8.84725C45.6652 8.71008 46.2777 8.98442 46.1416 9.46451ZM52.6069 26.4048C51.7902 26.4048 51.1097 27.0906 51.1097 27.9136C51.1097 28.7366 51.7902 29.4225 52.6069 29.4225C53.4235 29.4225 54.1041 28.7366 54.1041 27.9136C54.1041 27.0906 53.4235 26.4048 52.6069 26.4048ZM52.6069 29.2167C51.8583 29.2167 51.3138 28.668 51.3138 27.9136C51.3138 27.1592 51.8583 26.6105 52.6069 26.6105C53.3555 26.6105 53.8999 27.1592 53.8999 27.9136C53.8999 28.668 53.3555 29.2167 52.6069 29.2167Z" fill="#008BCC"/>
<path d="M53.4235 27.502C53.4235 27.1591 53.2873 27.0219 52.811 27.0219H52.0623V28.8051H52.2665V28.0507H52.6068L53.0832 28.8051H53.3554L52.811 28.0507C53.1512 27.9821 53.4235 27.845 53.4235 27.502ZM52.6068 27.845H52.2665V27.2963H52.7429C52.9471 27.2963 53.1512 27.2963 53.1512 27.5706C53.1512 27.845 52.811 27.845 52.6068 27.845ZM41.5818 8.98434C41.7179 9.1215 41.7179 9.25867 41.9221 9.25867C42.0582 9.25867 42.1262 9.19009 42.1943 9.1215H42.3304C42.1262 8.91575 41.6498 8.91575 41.3096 8.84717C41.4457 8.98434 41.5137 8.91575 41.5818 8.98434Z" fill="#008BCC"/>
</svg>
